<?xml version="1.0" encoding="UTF-8"?>
<!--Generator: Apple Native CoreSVG 232.5-->
<!DOCTYPE svg PUBLIC "-//W3C//DTD SVG 1.1//EN" "http://www.w3.org/Graphics/SVG/1.1/DTD/svg11.dtd">
<svg version="1.1" xmlns="http://www.w3.org/2000/svg" xmlns:xlink="http://www.w3.org/1999/xlink"
       width="18.9844" height="13.3496">
       <g>
              <path
                     d="M2.49023 13.3496L16.4062 13.3496C17.793 13.3496 18.623 12.5391 18.623 10.8984L18.623 2.46094C18.623 0.820312 17.7832 0.00976562 16.1328 0.00976562L2.2168 0.00976562C0.820312 0.00976562 0 0.820312 0 2.46094L0 10.8984C0 12.5391 0.830078 13.3496 2.49023 13.3496ZM2.43164 12.0215C1.73828 12.0215 1.33789 11.6406 1.33789 10.8984L1.33789 2.45117C1.33789 1.71875 1.73828 1.33789 2.43164 1.33789L16.1816 1.33789C16.8848 1.33789 17.2852 1.71875 17.2852 2.46094L17.2852 10.9082C17.2852 11.6406 16.8848 12.0215 16.1816 12.0215ZM9.30664 8.76953C9.82422 8.76953 10.3223 8.58398 10.7617 8.17383L17.9492 1.69922L17.0508 0.800781L10.0195 7.12891C9.80469 7.33398 9.56055 7.43164 9.30664 7.43164C9.0625 7.43164 8.81836 7.33398 8.60352 7.12891L1.57227 0.800781L0.673828 1.69922L7.85156 8.17383C8.30078 8.58398 8.79883 8.76953 9.30664 8.76953ZM1.67969 12.2852L7.04102 6.93359L6.13281 6.02539L0.78125 11.3867ZM16.9434 12.2949L17.8516 11.3965L12.4805 6.02539L11.582 6.93359Z"
                     fill="#000000" />
       </g>
</svg>