<?xml version="1.0" encoding="UTF-8"?>
<!--Generator: Apple Native CoreSVG 232.5-->
<!DOCTYPE svg PUBLIC "-//W3C//DTD SVG 1.1//EN" "http://www.w3.org/Graphics/SVG/1.1/DTD/svg11.dtd">
<svg version="1.1" xmlns="http://www.w3.org/2000/svg" xmlns:xlink="http://www.w3.org/1999/xlink"
       width="16.1328" height="15.7715">
       <g>
              <path
                     d="M7.88086 15.2637C10.0684 15.2637 11.7969 12.0508 11.7969 7.90039C11.7969 3.7207 10.0781 0.498047 7.88086 0.498047C5.68359 0.498047 3.97461 3.7207 3.97461 7.90039C3.97461 12.0508 5.69336 15.2637 7.88086 15.2637ZM7.88086 1.5625C9.33594 1.5625 10.6445 4.53125 10.6445 7.90039C10.6445 11.2305 9.33594 14.1992 7.88086 14.1992C6.43555 14.1992 5.12695 11.2305 5.12695 7.90039C5.12695 4.53125 6.43555 1.5625 7.88086 1.5625ZM7.31445 0.605469L7.31445 15.1172L8.44727 15.1172L8.44727 0.605469ZM7.88086 10.6445C5.50781 10.6445 3.37891 11.2793 2.31445 12.3047L3.18359 13.0176C4.17969 12.2168 5.82031 11.7773 7.88086 11.7773C9.95117 11.7773 11.582 12.2168 12.5879 13.0176L13.457 12.3047C12.3828 11.2793 10.2637 10.6445 7.88086 10.6445ZM14.9121 7.31445L0.849609 7.31445L0.849609 8.44727L14.9121 8.44727ZM7.88086 5.15625C10.2637 5.15625 12.3828 4.52148 13.457 3.49609L12.5879 2.7832C11.582 3.58398 9.95117 4.02344 7.88086 4.02344C5.82031 4.02344 4.17969 3.58398 3.18359 2.7832L2.31445 3.49609C3.37891 4.52148 5.50781 5.15625 7.88086 5.15625ZM7.88086 15.7617C12.1875 15.7617 15.7715 12.1875 15.7715 7.88086C15.7715 3.57422 12.1777 0 7.87109 0C3.57422 0 0 3.57422 0 7.88086C0 12.1875 3.58398 15.7617 7.88086 15.7617ZM7.88086 14.5898C4.22852 14.5898 1.18164 11.5332 1.18164 7.88086C1.18164 4.22852 4.21875 1.17188 7.87109 1.17188C11.5332 1.17188 14.5898 4.22852 14.5898 7.88086C14.5898 11.5332 11.543 14.5898 7.88086 14.5898Z"
                     fill="#000000" />
       </g>
</svg>