<?xml version="1.0" encoding="UTF-8"?>
<!--Generator: Apple Native CoreSVG 232.5-->
<!DOCTYPE svg PUBLIC "-//W3C//DTD SVG 1.1//EN" "http://www.w3.org/Graphics/SVG/1.1/DTD/svg11.dtd">
<svg version="1.1" xmlns="http://www.w3.org/2000/svg" xmlns:xlink="http://www.w3.org/1999/xlink"
       width="16.8262" height="16.6309">
       <g>
              <rect height="16.6309" opacity="0" width="16.8262" x="0" y="0" />
              <path
                     d="M8.59375 5.04883L7.44141 6.2207C8.35938 6.34766 8.95508 6.64062 9.4043 7.08984C10.7129 8.39844 10.7129 10.2344 9.42383 11.5234L6.92383 14.0234C5.625 15.3223 3.78906 15.3223 2.48047 14.0234C1.16211 12.7051 1.17188 10.8691 2.4707 9.58008L3.78906 8.26172C3.54492 7.69531 3.48633 7.05078 3.55469 6.50391L1.41602 8.64258C-0.46875 10.5176-0.478516 13.1836 1.42578 15.0781C3.32031 16.9824 5.97656 16.9727 7.86133 15.0879L10.4785 12.4609C12.3535 10.5859 12.3633 7.92969 10.4688 6.02539C10.0391 5.5957 9.48242 5.27344 8.59375 5.04883ZM7.87109 11.4453L9.01367 10.2832C8.0957 10.1562 7.5 9.86328 7.06055 9.41406C5.75195 8.10547 5.75195 6.26953 7.04102 4.98047L9.54102 2.48047C10.8398 1.18164 12.6758 1.17188 13.9844 2.48047C15.293 3.79883 15.2832 5.63477 13.9941 6.92383L12.6758 8.24219C12.9199 8.80859 12.9785 9.45312 12.9102 10L15.0488 7.86133C16.9336 5.97656 16.9434 3.32031 15.0391 1.42578C13.1445-0.478516 10.4785-0.46875 8.60352 1.41602L5.98633 4.04297C4.11133 5.91797 4.0918 8.57422 5.99609 10.4785C6.42578 10.9082 6.98242 11.2305 7.87109 11.4453Z"
                     fill="#000000" />
       </g>
</svg>