<?xml version="1.0" encoding="UTF-8"?>
<!--Generator: Apple Native CoreSVG 232.5-->
<!DOCTYPE svg PUBLIC "-//W3C//DTD SVG 1.1//EN" "http://www.w3.org/Graphics/SVG/1.1/DTD/svg11.dtd">
<svg version="1.1" xmlns="http://www.w3.org/2000/svg" xmlns:xlink="http://www.w3.org/1999/xlink"
       width="15.5957" height="15.2832">
       <g>
              <path
                     d="M11.3086 15.2832C12.7148 15.2832 13.584 14.9121 14.3652 14.0234C14.4336 13.9453 14.4922 13.8672 14.5605 13.7988C15.0195 13.2715 15.2344 12.7637 15.2344 12.2754C15.2344 11.6895 14.8926 11.1426 14.1504 10.6348L11.9141 9.07227C11.2012 8.57422 10.3516 8.53516 9.7168 9.16016L9.11133 9.76562C8.93555 9.94141 8.79883 9.94141 8.65234 9.84375C8.21289 9.56055 7.39258 8.81836 6.875 8.30078C6.35742 7.7832 5.72266 7.08008 5.42969 6.63086C5.33203 6.47461 5.33203 6.34766 5.50781 6.17188L6.12305 5.55664C6.74805 4.93164 6.70898 4.08203 6.20117 3.35938L4.64844 1.13281C4.13086 0.390625 3.58398 0.0488281 2.99805 0.0390625C2.51953 0.0292969 2.01172 0.253906 1.48438 0.712891C1.40625 0.78125 1.33789 0.849609 1.25977 0.917969C0.371094 1.68945 0 2.56836 0 3.96484C0 6.17188 1.32812 8.89648 3.85742 11.4258C6.37695 13.9453 9.10156 15.2832 11.3086 15.2832ZM11.3184 13.9551C9.36523 13.9941 6.82617 12.4805 4.86328 10.5176C2.88086 8.55469 1.2793 5.9082 1.32812 3.95508C1.34766 3.125 1.64062 2.42188 2.22656 1.92383C2.28516 1.875 2.33398 1.83594 2.39258 1.78711C2.58789 1.63086 2.8125 1.5332 3.00781 1.5332C3.22266 1.5332 3.4082 1.61133 3.55469 1.82617L5.03906 4.0625C5.17578 4.27734 5.18555 4.50195 4.99023 4.6875L4.28711 5.39062C3.7207 5.9668 3.76953 6.65039 4.19922 7.19727C4.67773 7.82227 5.45898 8.69141 5.98633 9.19922C6.50391 9.7168 7.46094 10.5957 8.08594 11.084C8.63281 11.5039 9.31641 11.5625 9.88281 10.9863L10.5859 10.2832C10.7812 10.0977 10.9961 10.0977 11.2207 10.2441L13.4473 11.7285C13.6621 11.8652 13.7402 12.0508 13.7402 12.2656C13.7402 12.4707 13.6523 12.6953 13.4863 12.8906C13.4473 12.9492 13.4082 12.998 13.3594 13.0469C12.8613 13.6426 12.1484 13.9355 11.3184 13.9551Z"
                     fill="#000000" />
       </g>
</svg>